<?xml version="1.0" encoding="utf-8"?>
<!-- Generator: Adobe Illustrator 16.0.4, SVG Export Plug-In . SVG Version: 6.00 Build 0)  -->
<!DOCTYPE svg PUBLIC "-//W3C//DTD SVG 1.1//EN" "http://www.w3.org/Graphics/SVG/1.1/DTD/svg11.dtd">
<svg version="1.1" id="Layer_1" xmlns="http://www.w3.org/2000/svg" xmlns:xlink="http://www.w3.org/1999/xlink" x="0px" y="0px"
	 width="171.333px" height="145.333px" viewBox="0 0 171.333 145.333" enable-background="new 0 0 171.333 145.333"
	 xml:space="preserve">
<g>
	<path fill="#000000" d="M63.104,77.412c-1.595,3.109-3.803,5.766-6.625,7.974c-2.822,2.208-6.195,3.845-10.121,4.907
		s-8.219,1.594-12.881,1.594c-4.008,0-7.443-0.245-10.305-0.735c-2.864-0.491-5.235-1.083-7.115-1.779
		c-1.882-0.694-3.293-1.328-4.232-1.901c-0.941-0.571-1.534-0.859-1.779-0.859c-0.246,0-0.778,0.491-1.595,1.472
		c-0.819,0.981-1.555,1.923-2.208,2.822H5.138L4.77,66.493h1.227c0.736,2.208,1.675,4.355,2.821,6.441
		c1.145,2.085,2.393,4.048,3.742,5.888c1.35,1.84,2.78,3.456,4.294,4.846c1.512,1.392,2.963,2.454,4.355,3.19
		c1.39,0.736,3.23,1.472,5.521,2.208c2.289,0.736,4.497,1.104,6.625,1.104c6.052,0,10.958-1.656,14.721-4.968
		c3.761-3.312,5.644-7.79,5.644-13.433c0-2.289-0.368-4.294-1.104-6.011c-0.736-1.718-1.738-3.209-3.005-4.478
		c-1.269-1.267-2.76-2.35-4.478-3.251c-1.718-0.899-3.558-1.717-5.521-2.453c-1.963-0.736-3.681-1.35-5.153-1.84
		s-2.842-0.96-4.109-1.411c-1.269-0.449-2.576-0.899-3.926-1.35c-1.35-0.449-2.965-1.043-4.846-1.779
		c-2.128-0.816-4.171-1.942-6.134-3.374c-1.963-1.43-3.681-3.107-5.153-5.03c-1.472-1.921-2.659-4.048-3.558-6.379
		c-0.901-2.331-1.349-4.804-1.349-7.422c0-4.417,0.805-8.22,2.419-11.409c1.612-3.189,3.78-5.846,6.502-7.974
		c2.722-2.125,5.861-3.699,9.419-4.723c3.558-1.021,7.299-1.533,11.225-1.533c3.681,0,6.828,0.307,9.446,0.92
		c2.617,0.613,4.763,1.288,6.44,2.024c1.675,0.736,2.944,1.411,3.803,2.024s1.328,0.92,1.411,0.92c0.246,0,0.755-0.491,1.534-1.472
		c0.776-0.981,1.491-1.963,2.147-2.944h1.349v22.695H59.73c-0.981-2.699-2.25-5.377-3.803-8.036
		c-1.555-2.657-3.354-5.03-5.398-7.115c-2.045-2.085-4.376-3.782-6.993-5.091c-2.618-1.308-5.521-1.963-8.71-1.963
		c-2.536,0-4.928,0.368-7.177,1.104c-2.25,0.736-4.213,1.84-5.888,3.312c-1.677,1.472-2.987,3.293-3.926,5.459
		c-0.941,2.168-1.411,4.643-1.411,7.422c0,4.336,1.305,7.811,3.916,10.428c2.61,2.618,5.996,4.704,10.157,6.256
		c1.629,0.656,3.159,1.227,4.587,1.718s2.835,0.962,4.223,1.411c1.386,0.45,2.793,0.92,4.221,1.411
		c1.428,0.491,2.917,1.024,4.468,1.595c5.547,2.045,9.851,5.011,12.91,8.895c3.059,3.885,4.589,8.731,4.589,14.537
		C65.496,70.787,64.698,74.304,63.104,77.412z"/>
	<path fill="#000000" d="M143.886,91.029c-0.736-0.736-1.269-1.288-1.595-1.656c-0.328-0.368-0.696-0.797-1.104-1.288
		c-0.41-0.491-0.92-1.206-1.534-2.147c-0.613-0.939-1.576-2.35-2.883-4.232c-1.555-2.289-2.925-4.355-4.11-6.195
		c-1.187-1.84-2.392-3.659-3.619-5.459c-1.227-1.798-2.557-3.619-3.987-5.459c-1.432-1.84-3.128-3.905-5.091-6.195
		c-1.637-1.88-3.416-3.638-5.336-5.275c-1.923-1.635-3.947-2.657-6.073-3.067c-1.555-0.326-2.741-0.491-3.558-0.491
		c-0.736,0-1.677-0.041-2.822-0.123c0,5.317,0,9.937,0,13.863s0.041,7.238,0.123,9.937c0.081,2.618,0.163,4.867,0.245,6.747
		c0.081,1.882,0.531,3.435,1.35,4.662c0.653,1.064,1.92,2.147,3.803,3.251c1.88,1.104,4.497,1.739,7.852,1.902v1.227H76.291v-1.227
		c2.043-0.326,4.006-0.817,5.889-1.472c1.88-0.654,3.353-1.635,4.416-2.944c0.409-0.491,0.736-1.227,0.981-2.208
		c0.246-0.981,0.43-2.085,0.552-3.312c0.123-1.227,0.224-2.534,0.307-3.926c0.081-1.39,0.123-2.739,0.123-4.048
		c0-1.145,0.02-2.699,0.062-4.662c0.04-1.963,0.081-4.11,0.123-6.441c0.041-2.331,0.062-4.723,0.062-7.176c0-2.534,0-4.907,0-7.115
		V22.575c0-1.472-0.021-2.963-0.062-4.478c-0.042-1.513-0.123-2.944-0.245-4.294s-0.328-2.576-0.613-3.68
		c-0.288-1.104-0.675-1.902-1.166-2.392c-1.227-1.308-2.598-2.188-4.11-2.638c-1.514-0.449-3.374-0.838-5.582-1.166V2.701
		c0.654,0,2.331,0,5.03,0c2.78,0,5.929-0.019,9.446-0.061c3.516-0.041,7.033-0.062,10.55-0.062c3.516,0,6.379,0,8.587,0
		c5.479,0,10.345,0.165,14.599,0.491c4.251,0.328,8.137,1.432,11.654,3.312c3.598,1.882,6.502,4.438,8.71,7.667
		c2.208,3.231,3.312,7.299,3.312,12.206c0,3.027-0.552,5.747-1.656,8.158c-1.104,2.413-2.577,4.539-4.417,6.379
		c-1.84,1.84-3.987,3.416-6.441,4.723c-2.453,1.309-5.03,2.413-7.729,3.312v0.368c1.39,0.736,2.739,1.8,4.048,3.189
		c1.307,1.392,2.576,2.944,3.803,4.662c2.125,3.109,4.436,6.462,6.931,10.06c2.494,3.6,4.723,6.79,6.686,9.569
		c3.024,4.254,5.969,7.361,8.833,9.324c2.862,1.963,6.214,3.232,10.06,3.803v1.227H143.886z M131.741,14.601
		c-2.045-3.189-5.03-5.724-8.956-7.606c-1.963-0.899-4.029-1.553-6.195-1.963c-2.168-0.408-4.438-0.613-6.809-0.613
		c-1.718,0-3.109,0.042-4.171,0.123c-1.064,0.083-1.882,0.165-2.454,0.246c-0.082,0.491-0.165,0.92-0.245,1.288
		c-0.083,0.368-0.144,0.839-0.184,1.411c-0.042,0.573-0.083,1.371-0.123,2.392c-0.042,1.024-0.104,2.475-0.184,4.355
		c-0.083,2.864-0.144,6.094-0.184,9.692c-0.042,3.6-0.062,7.075-0.062,10.427c0,3.354,0,6.299,0,8.833c0,2.454,0,4.008,0,4.662
		c3.353,0,6.481-0.142,9.385-0.429c2.902-0.286,5.704-0.878,8.403-1.779c2.616-0.817,4.865-1.921,6.747-3.312
		c1.88-1.39,3.414-2.963,4.601-4.723c1.185-1.757,2.064-3.659,2.638-5.704c0.571-2.043,0.858-4.171,0.858-6.379
		C134.808,21.43,133.784,17.79,131.741,14.601z"/>
</g>
<g>
	<path fill="#0FC391" d="M2.403,98.052c0-0.67,0.567-1.237,1.237-1.237h0.155h10.051c5.67,0,10.257,4.639,10.257,10.309
		s-4.587,10.258-10.257,10.258l-8.917,0.103v14.175c0,0.67-0.567,1.237-1.289,1.237c-0.67,0-1.237-0.567-1.237-1.237V98.052z
		 M13.845,114.958c4.278-0.052,7.783-3.557,7.783-7.835c0-4.277-3.505-7.783-7.783-7.783H4.928v15.618H13.845z"/>
	<path fill="#0FC391" d="M32.25,98.052c0-0.67,0.567-1.237,1.237-1.237c0.722,0,1.289,0.567,1.289,1.237v33.606
		c0,0.67-0.567,1.237-1.289,1.237c-0.67,0-1.237-0.567-1.237-1.237V98.052z"/>
	<path fill="#0FC391" d="M65.911,108.876v22.782c0,0.67-0.567,1.237-1.237,1.237s-1.237-0.567-1.237-1.237v-3.763
		c-2.165,2.99-5.618,5-9.484,5c-6.649,0-11.958-5.722-11.958-12.628c0-6.907,5.309-12.629,11.958-12.629
		c3.866,0,7.319,1.959,9.484,4.948v-3.711c0-0.722,0.567-1.237,1.237-1.237S65.911,108.154,65.911,108.876z M63.436,120.268
		c0-5.67-4.278-10.206-9.484-10.206c-5.154,0-9.484,4.536-9.484,10.206s4.33,10.154,9.484,10.154
		C59.158,130.422,63.436,125.938,63.436,120.268z"/>
	<path fill="#0FC391" d="M76.12,108.824c0-0.67,0.567-1.186,1.186-1.186c0.722,0,1.289,0.516,1.289,1.186v13.711
		c0,4.33,3.454,7.783,7.732,7.783c4.33,0,7.783-3.453,7.834-7.783v-13.711c0-0.206,0.052-0.464,0.206-0.618
		c0-0.052,0.052-0.104,0.052-0.155c0.051,0,0.051-0.051,0.103-0.051c0.103-0.155,0.309-0.258,0.464-0.31h0.103
		c0.052,0,0.103-0.052,0.155-0.052h0.155h0.154c0.207,0.052,0.413,0.155,0.619,0.258c0.103,0.104,0.258,0.258,0.309,0.412
		c0.104,0.155,0.155,0.361,0.155,0.516v13.711v0.464v7.887c0,6.598-5.36,11.854-12.01,11.854c-1.855,0-3.608-0.464-5.206-1.186
		c-0.567-0.36-0.825-1.082-0.515-1.649c0.309-0.618,0.979-0.772,1.598-0.618c1.237,0.618,2.68,0.979,4.124,0.979
		c5.257,0,9.484-4.176,9.536-9.381v-1.649c-1.907,2.164-4.69,3.607-7.834,3.607c-5.619-0.052-10.206-4.639-10.206-10.309V108.824z"
		/>
	<path fill="#0FC391" d="M107.359,98.052c0-0.67,0.567-1.237,1.237-1.237c0.722,0,1.289,0.567,1.289,1.237v33.606
		c0,0.67-0.567,1.237-1.289,1.237c-0.67,0-1.237-0.567-1.237-1.237V98.052z"/>
	<path fill="#0FC391" d="M119.886,100.629c0-0.67,0.567-1.237,1.237-1.237c0.722,0,1.289,0.567,1.289,1.237v1.186
		c0,0.722-0.567,1.34-1.289,1.34c-0.67,0-1.237-0.618-1.237-1.34V100.629z M119.886,108.876c0-0.722,0.567-1.237,1.237-1.237
		c0.722,0,1.289,0.516,1.289,1.237v22.782c0,0.67-0.567,1.237-1.289,1.237c-0.67,0-1.237-0.567-1.237-1.237V108.876z"/>
	<path fill="#0FC391" d="M132.567,127.638c0.413-0.515,1.186-0.618,1.752-0.154c1.752,1.288,4.536,2.938,7.732,2.938
		c1.958,0,3.66-0.619,4.793-1.547c1.237-0.824,1.907-1.959,1.907-3.093c-0.052-1.186-0.516-2.01-1.804-3.093
		c-1.083-0.824-2.886-1.443-5.36-1.855l-0.103-0.052c-2.268-0.412-4.278-0.928-5.722-1.958c-1.598-0.928-2.732-2.577-2.732-4.536
		c0-2.011,1.134-3.763,2.732-4.948c1.495-1.031,3.608-1.701,6.186-1.701c3.247,0,5.566,1.495,7.525,2.732
		c0.567,0.412,0.722,1.186,0.361,1.752c-0.361,0.567-1.134,0.722-1.701,0.361c-1.855-1.237-3.711-2.526-6.185-2.526
		c-2.062,0-3.711,0.567-4.794,1.443c-1.031,0.825-1.598,1.855-1.598,2.887s0.464,1.753,1.443,2.525
		c1.134,0.773,2.835,1.392,5.154,1.753h0.103c2.422,0.36,4.381,1.082,6.134,2.062c1.649,1.082,2.835,3.041,2.835,5.154
		s-1.186,3.814-2.887,5.104c-1.752,1.288-3.814,2.01-6.288,2.01c-4.072-0.052-7.268-1.959-9.33-3.608
		C132.207,128.823,132.155,128.153,132.567,127.638z"/>
	<path fill="#0FC391" d="M169.27,108.876c0,0.618-0.619,1.237-1.237,1.237h-3.247v18.401c0,1.236,1.237,1.855,1.855,1.855
		s1.289,0.67,1.289,1.288c0,0.619-0.67,1.237-1.289,1.237c-2.526,0-4.433-1.855-4.433-4.381v-18.401h-3.144
		c-1.237,0-1.237-0.619-1.237-1.237s0-1.237,1.237-1.237h3.144v-9.381c0-0.618,0.619-1.237,1.237-1.237
		c0.67,0,1.34,0.619,1.34,1.237v9.381h3.247C168.651,107.639,169.27,108.258,169.27,108.876z"/>
</g>
</svg>
