<?xml version="1.0" encoding="iso-8859-1"?>
<!DOCTYPE svg PUBLIC "-//W3C//DTD SVG 1.1//EN" "http://www.w3.org/Graphics/SVG/1.1/DTD/svg11.dtd">
<svg xmlns="http://www.w3.org/2000/svg">
    <symbol id="magnifying-glass" viewBox="0 0 512 512">
        <path d="M495,466.2L377.2,348.4c29.2-35.6,46.8-81.2,46.8-130.9C424,103.5,331.5,11,217.5,11C103.4,11,11,103.5,11,217.5   S103.4,424,217.5,424c49.7,0,95.2-17.5,130.8-46.7L466.1,495c8,8,20.9,8,28.9,0C503,487.1,503,474.1,495,466.2z M217.5,382.9   C126.2,382.9,52,308.7,52,217.5S126.2,52,217.5,52C308.7,52,383,126.3,383,217.5S308.7,382.9,217.5,382.9z"/>
    </symbol>
    <symbol id="caret" viewBox="0 0 307.054 307.054">
        <path d="M302.445,205.788L164.63,67.959c-6.136-6.13-16.074-6.13-22.203,0L4.597,205.788c-6.129,6.132-6.129,16.069,0,22.201     l11.101,11.101c6.129,6.136,16.076,6.136,22.209,0l115.62-115.626L269.151,239.09c6.128,6.136,16.07,6.136,22.201,0     l11.101-11.101C308.589,221.85,308.589,211.92,302.445,205.788z"/>
    </symbol>
</svg>