<?xml version="1.0" encoding="iso-8859-1"?>
<!DOCTYPE svg PUBLIC "-//W3C//DTD SVG 1.1//EN" "http://www.w3.org/Graphics/SVG/1.1/DTD/svg11.dtd">
<svg xmlns="http://www.w3.org/2000/svg">
    <symbol id="magnifying-glass" viewBox="0 0 512 512">
        <path d="M495,466.2L377.2,348.4c29.2-35.6,46.8-81.2,46.8-130.9C424,103.5,331.5,11,217.5,11C103.4,11,11,103.5,11,217.5   S103.4,424,217.5,424c49.7,0,95.2-17.5,130.8-46.7L466.1,495c8,8,20.9,8,28.9,0C503,487.1,503,474.1,495,466.2z M217.5,382.9   C126.2,382.9,52,308.7,52,217.5S126.2,52,217.5,52C308.7,52,383,126.3,383,217.5S308.7,382.9,217.5,382.9z"/>
    </symbol>
    <symbol id="caret" viewBox="0 0 307.054 307.054">
        <path d="M302.445,205.788L164.63,67.959c-6.136-6.13-16.074-6.13-22.203,0L4.597,205.788c-6.129,6.132-6.129,16.069,0,22.201     l11.101,11.101c6.129,6.136,16.076,6.136,22.209,0l115.62-115.626L269.151,239.09c6.128,6.136,16.07,6.136,22.201,0     l11.101-11.101C308.589,221.85,308.589,211.92,302.445,205.788z"/>
    </symbol>
    <symbol id="cd" viewBox="0 0 60 60">
        <path d="M30,0C13.458,0,0,13.458,0,30s13.458,30,30,30s30-13.458,30-30S46.542,0,30,0z M8.459,23.165  c-0.11,0.459-0.521,0.767-0.972,0.767c-0.077,0-0.156-0.009-0.234-0.027c-0.537-0.13-0.868-0.67-0.739-1.206  c0.946-3.935,2.955-7.522,5.809-10.376s6.441-4.862,10.376-5.809c0.536-0.127,1.077,0.202,1.206,0.739  c0.129,0.536-0.202,1.076-0.739,1.206c-3.575,0.859-6.836,2.685-9.429,5.277S9.318,19.59,8.459,23.165z M12.313,25.226  c-0.075,0-0.151-0.008-0.228-0.026c-0.538-0.125-0.873-0.663-0.747-1.2c0.72-3.09,2.282-5.904,4.52-8.141  c2.236-2.237,5.051-3.8,8.141-4.52c0.535-0.131,1.075,0.209,1.2,0.747c0.126,0.537-0.209,1.075-0.747,1.2  c-2.725,0.635-5.207,2.014-7.18,3.986s-3.352,4.455-3.986,7.18C13.179,24.914,12.768,25.226,12.313,25.226z M18.115,25.732  c-0.103,0.468-0.516,0.786-0.976,0.786c-0.071,0-0.143-0.008-0.215-0.023c-0.539-0.118-0.881-0.651-0.763-1.19  c0.997-4.557,4.586-8.146,9.143-9.143c0.537-0.116,1.071,0.222,1.19,0.763c0.118,0.539-0.224,1.072-0.763,1.19  C21.937,18.946,18.946,21.937,18.115,25.732z M21.92,30c0-4.455,3.625-8.08,8.08-8.08s8.08,3.625,8.08,8.08s-3.625,8.08-8.08,8.08  S21.92,34.455,21.92,30z M34.48,43.861c-0.46,0-0.873-0.318-0.976-0.786c-0.118-0.539,0.224-1.072,0.763-1.19  c3.796-0.831,6.786-3.821,7.617-7.617c0.118-0.541,0.65-0.881,1.19-0.763c0.539,0.118,0.881,0.651,0.763,1.19  c-0.997,4.557-4.586,8.146-9.143,9.143C34.623,43.854,34.552,43.861,34.48,43.861z M35.773,48.688c-0.454,0-0.865-0.312-0.973-0.773  c-0.126-0.537,0.209-1.075,0.747-1.2c2.725-0.635,5.207-2.014,7.18-3.986s3.352-4.455,3.986-7.18c0.125-0.538,0.662-0.88,1.2-0.747  c0.538,0.125,0.873,0.663,0.747,1.2c-0.72,3.09-2.282,5.904-4.52,8.141c-2.236,2.237-5.051,3.8-8.141,4.52  C35.925,48.68,35.849,48.688,35.773,48.688z M47.678,47.678c-2.854,2.854-6.441,4.862-10.377,5.809  c-0.078,0.019-0.157,0.027-0.234,0.027c-0.451,0-0.861-0.308-0.972-0.767c-0.129-0.536,0.202-1.076,0.739-1.206  c3.576-0.859,6.837-2.685,9.43-5.277s4.418-5.854,5.277-9.429c0.129-0.538,0.668-0.868,1.206-0.739  c0.537,0.13,0.868,0.67,0.739,1.206C52.54,41.236,50.531,44.824,47.678,47.678z"/>
    </symbol>
    <symbol id="spotify-logo" viewBox="0 0 493.253 493.253">
        <path style="fill-rule:evenodd;clip-rule:evenodd;" d="M246.626,0C110.418,0,0,110.419,0,246.627  c0,136.207,110.418,246.626,246.626,246.626s246.626-110.419,246.626-246.626C493.252,110.419,382.834,0,246.626,0z   M358.248,372.355c-4.022,6.749-12.543,9.472-19.83,6.246c-1.463-0.641-2.836-1.51-4.221-2.334  c-27.037-16.016-56.214-25.944-87.219-30.686c-19.031-2.917-38.168-3.923-57.381-3.169c-24.857,0.973-49.402,4.416-73.682,9.787  c-2.453,0.549-4.981,1.052-7.476,1.075c-7.515,0.068-13.864-5.257-15.187-12.485c-1.395-7.654,2.397-14.826,9.422-17.651  c1.483-0.595,3.061-0.973,4.626-1.327c19.859-4.45,39.912-7.836,60.195-9.553c11.331-0.961,22.695-1.326,34.05-1.967  c33.592,0.355,66.451,4.897,98.338,15.648c17.588,5.926,34.387,13.603,50.34,23.103c1.377,0.823,2.785,1.636,4.055,2.608  C360.719,356.535,362.394,365.377,358.248,372.355z M389.505,302.861c-5.65,9.26-17.381,12.143-27.135,6.651  c-5.501-3.111-10.939-6.331-16.563-9.202c-25.783-13.145-53.128-21.667-81.499-27.031c-21.844-4.142-43.889-6.154-67.322-6.258  c-29.175,0.125-59.065,3.74-88.266,12.4c-4.758,1.418-9.535,1.51-14.19-0.377c-7.585-3.066-12.521-10.674-12.252-18.71  c0.273-8.396,5.394-15.694,13.48-18.165c8.232-2.518,16.588-4.691,24.99-6.567c20.682-4.598,41.65-7.023,62.83-7.824  c45.568-1.728,90.086,4.164,133.515,18.086c21.964,7.035,42.973,16.249,62.814,28.056c0.984,0.584,1.963,1.189,2.952,1.784  C393.201,282.017,394.437,294.75,389.505,302.861z M392.521,230.604c-11.016-6.234-22.289-11.885-34.039-16.592  c-23.341-9.358-47.524-15.648-72.244-20.008c-17.205-3.031-34.541-5.045-51.976-6.098c-18.126-1.086-36.264-1.213-54.413-0.274  c-20.801,1.075-41.433,3.363-61.795,7.756c-7.514,1.625-14.934,3.673-22.369,5.651c-4.559,1.235-9.049,1.373-13.585,0.046  c-9.929-2.905-16.78-11.806-17.071-22.216c-0.293-10.129,5.959-19.533,15.775-22.77c7.184-2.368,14.556-4.232,21.934-5.938  c18.263-4.221,36.777-6.84,55.446-8.533c19.825-1.808,39.679-2.391,59.548-1.83c48.961,1.406,96.961,8.557,143.416,24.594  c18.938,6.544,37.173,14.66,54.498,24.771c6.177,3.593,10.324,8.672,11.902,15.707c0.377,1.671,0.463,3.398,0.686,5.113  C428.161,228.465,408.765,239.79,392.521,230.604z"/>
    </symbol>
</svg>